<svg width="360" height="360" xmlns="http://www.w3.org/2000/svg" preserveAspectRatio="xMidYMid meet">
 <metadata>Created with editor.method.ac</metadata>

 <g>
  <title>background</title>
  <rect fill="none" id="canvas_background" height="602" width="802" y="-1" x="-1"/>
 </g>
 <g>
  <title>Layer 1</title>
  <g id="svg_1" fill="#000000" transform="translate(0,360) scale(0.10000000149011612,-0.10000000149011612) ">
   <path stroke="null" id="svg_3" d="m1683,2566c-53,-17 -113,-60 -145,-105c-49,-68 -58,-117 -58,-301c0,-178 5,-204 47,-251c23,-25 23,-32 21,-153l-3,-127l-130,-68c-256,-132 -375,-202 -410,-241c-18,-20 -20,-36 -20,-159l0,-136l815,0l815,0l0,136c0,123 -2,139 -20,159c-35,39 -154,109 -410,241l-130,68l-3,127c-2,114 -1,129 17,148c49,54 53,76 49,274c-3,171 -5,191 -26,233c-30,60 -83,113 -141,141c-57,28 -203,35 -268,14z"/>
  </g>
 </g>
</svg>